<svg height="512" viewBox="0 0 512 512" width="512" xmlns="http://www.w3.org/2000/svg" xmlns:xlink="http://www.w3.org/1999/xlink"><linearGradient id="linear-gradient" gradientUnits="userSpaceOnUse" x1="84.462" x2="557.929" y1="555.538" y2="82.071"><stop offset="0" stop-color="#003f8a"/><stop offset=".518" stop-color="#00d7df"/><stop offset="1" stop-color="#006df0"/></linearGradient><linearGradient id="linear-gradient-2" x1="210.462" x2="683.929" xlink:href="#linear-gradient" y1="681.538" y2="208.071"/><linearGradient id="linear-gradient-3" x1="72.462" x2="545.929" xlink:href="#linear-gradient" y1="543.538" y2="70.071"/><linearGradient id="linear-gradient-4" x1="28.462" x2="501.929" xlink:href="#linear-gradient" y1="499.538" y2="26.071"/><linearGradient id="linear-gradient-5" x1=".462" x2="473.929" xlink:href="#linear-gradient" y1="471.538" y2="-1.929"/><linearGradient id="linear-gradient-6" x1="-27.538" x2="445.929" xlink:href="#linear-gradient" y1="443.538" y2="-29.929"/><linearGradient id="linear-gradient-7" x1="-55.538" x2="417.929" xlink:href="#linear-gradient" y1="415.538" y2="-57.929"/><linearGradient id="linear-gradient-8" x1="-83.538" x2="389.929" xlink:href="#linear-gradient" y1="387.538" y2="-85.929"/><linearGradient id="linear-gradient-9" x1="116.462" x2="589.929" xlink:href="#linear-gradient" y1="587.538" y2="114.071"/><linearGradient id="linear-gradient-10" x1="88.462" x2="561.929" xlink:href="#linear-gradient" y1="559.538" y2="86.071"/><linearGradient id="linear-gradient-11" x1="60.462" x2="533.929" xlink:href="#linear-gradient" y1="531.538" y2="58.071"/><linearGradient id="linear-gradient-12" x1="160.462" x2="633.929" xlink:href="#linear-gradient" y1="631.538" y2="158.071"/><linearGradient id="linear-gradient-13" x1="132.462" x2="605.929" xlink:href="#linear-gradient" y1="603.538" y2="130.071"/><linearGradient id="linear-gradient-14" x1="-15.538" x2="457.929" xlink:href="#linear-gradient" y1="455.538" y2="-17.929"/><linearGradient id="linear-gradient-15" x1="-43.538" x2="429.929" xlink:href="#linear-gradient" y1="427.538" y2="-45.929"/><linearGradient id="linear-gradient-16" x1="-71.538" x2="401.929" xlink:href="#linear-gradient" y1="399.538" y2="-73.929"/><g id="Beat"><path d="m464 392h-448a8 8 0 0 0 0 16h448a8 8 0 0 0 0-16z" fill="url(#linear-gradient)"/><path d="m496 392h-8a8 8 0 0 0 0 16h8a8 8 0 0 0 0-16z" fill="url(#linear-gradient-2)"/><path d="m224 384h64a8 8 0 0 0 8-8v-32a8 8 0 0 0 -8-8h-64a8 8 0 0 0 -8 8v32a8 8 0 0 0 8 8zm8-32h48v16h-48z" fill="url(#linear-gradient-3)"/><path d="m136 384h64a8 8 0 0 0 8-8v-32a8 8 0 0 0 -8-8h-64a8 8 0 0 0 -8 8v32a8 8 0 0 0 8 8zm8-32h48v16h-48z" fill="url(#linear-gradient-4)"/><path d="m136 328h64a8 8 0 0 0 8-8v-32a8 8 0 0 0 -8-8h-64a8 8 0 0 0 -8 8v32a8 8 0 0 0 8 8zm8-32h48v16h-48z" fill="url(#linear-gradient-5)"/><path d="m136 272h64a8 8 0 0 0 8-8v-32a8 8 0 0 0 -8-8h-64a8 8 0 0 0 -8 8v32a8 8 0 0 0 8 8zm8-32h48v16h-48z" fill="url(#linear-gradient-6)"/><path d="m136 216h64a8 8 0 0 0 8-8v-32a8 8 0 0 0 -8-8h-64a8 8 0 0 0 -8 8v32a8 8 0 0 0 8 8zm8-32h48v16h-48z" fill="url(#linear-gradient-7)"/><path d="m136 160h64a8 8 0 0 0 8-8v-32a8 8 0 0 0 -8-8h-64a8 8 0 0 0 -8 8v32a8 8 0 0 0 8 8zm8-32h48v16h-48z" fill="url(#linear-gradient-8)"/><path d="m312 384h64a8 8 0 0 0 8-8v-32a8 8 0 0 0 -8-8h-64a8 8 0 0 0 -8 8v32a8 8 0 0 0 8 8zm8-32h48v16h-48z" fill="url(#linear-gradient-9)"/><path d="m312 328h64a8 8 0 0 0 8-8v-32a8 8 0 0 0 -8-8h-64a8 8 0 0 0 -8 8v32a8 8 0 0 0 8 8zm8-32h48v16h-48z" fill="url(#linear-gradient-10)"/><path d="m312 272h64a8 8 0 0 0 8-8v-32a8 8 0 0 0 -8-8h-64a8 8 0 0 0 -8 8v32a8 8 0 0 0 8 8zm8-32h48v16h-48z" fill="url(#linear-gradient-11)"/><path d="m464 336h-64a8 8 0 0 0 -8 8v32a8 8 0 0 0 8 8h64a8 8 0 0 0 8-8v-32a8 8 0 0 0 -8-8zm-8 32h-48v-16h48z" fill="url(#linear-gradient-12)"/><path d="m464 280h-64a8 8 0 0 0 -8 8v32a8 8 0 0 0 8 8h64a8 8 0 0 0 8-8v-32a8 8 0 0 0 -8-8zm-8 32h-48v-16h48z" fill="url(#linear-gradient-13)"/><path d="m48 384h64a8 8 0 0 0 8-8v-32a8 8 0 0 0 -8-8h-64a8 8 0 0 0 -8 8v32a8 8 0 0 0 8 8zm8-32h48v16h-48z" fill="url(#linear-gradient-14)"/><path d="m48 328h64a8 8 0 0 0 8-8v-32a8 8 0 0 0 -8-8h-64a8 8 0 0 0 -8 8v32a8 8 0 0 0 8 8zm8-32h48v16h-48z" fill="url(#linear-gradient-15)"/><path d="m48 272h64a8 8 0 0 0 8-8v-32a8 8 0 0 0 -8-8h-64a8 8 0 0 0 -8 8v32a8 8 0 0 0 8 8zm8-32h48v16h-48z" fill="url(#linear-gradient-16)"/></g></svg>