<svg height="512" viewBox="0 0 64 64" width="512" xmlns="http://www.w3.org/2000/svg" xmlns:xlink="http://www.w3.org/1999/xlink"><linearGradient id="linear-gradient" gradientUnits="userSpaceOnUse" x1="3.5" x2="60.64" y1="60.5" y2="3.36"><stop offset="0" stop-color="#003f8a"/><stop offset=".518" stop-color="#00d7df"/><stop offset="1" stop-color="#006df0"/></linearGradient><linearGradient id="linear-gradient-2" x1="8.25" x2="65.39" xlink:href="#linear-gradient" y1="65.25" y2="8.11"/><linearGradient id="linear-gradient-3" x1="-.689" x2="56.451" xlink:href="#linear-gradient" y1="56.311" y2="-.829"/><linearGradient id="linear-gradient-4" x1="11.75" x2="68.89" xlink:href="#linear-gradient" y1="68.75" y2="11.61"/><linearGradient id="linear-gradient-5" x1="15.25" x2="72.39" xlink:href="#linear-gradient" y1="72.25" y2="15.11"/><linearGradient id="linear-gradient-6" x1="-7" x2="50.14" xlink:href="#linear-gradient" y1="50" y2="-7.14"/><linearGradient id="linear-gradient-7" x1="-8.75" x2="48.39" xlink:href="#linear-gradient" y1="48.25" y2="-8.89"/><linearGradient id="linear-gradient-8" x1="-15.286" x2="41.854" xlink:href="#linear-gradient" y1="41.714" y2="-15.426"/><linearGradient id="linear-gradient-9" x1="-10" x2="47.14" xlink:href="#linear-gradient" y1="47" y2="-10.14"/><linearGradient id="linear-gradient-10" x1="12" x2="69.14" xlink:href="#linear-gradient" y1="69" y2="11.86"/><linearGradient id="linear-gradient-11" x1="14.393" x2="71.533" xlink:href="#linear-gradient" y1="71.393" y2="14.253"/><linearGradient id="linear-gradient-12" x1="21.786" x2="78.926" xlink:href="#linear-gradient" y1="78.786" y2="21.646"/><linearGradient id="linear-gradient-13" x1="15" x2="72.14" xlink:href="#linear-gradient" y1="72" y2="14.86"/><g id="Music_player" data-name="Music player"><path d="m45 1h-26a5.006 5.006 0 0 0 -5 5v52a5.006 5.006 0 0 0 5 5h26a5.006 5.006 0 0 0 5-5v-52a5.006 5.006 0 0 0 -5-5zm-7.618 2-1 2h-8.764l-1-2zm10.618 55a3 3 0 0 1 -3 3h-26a3 3 0 0 1 -3-3v-52a3 3 0 0 1 3-3h5.382l1.723 3.447a1 1 0 0 0 .895.553h10a1 1 0 0 0 .9-.553l1.718-3.447h5.382a3 3 0 0 1 3 3z" fill="url(#linear-gradient)"/><path d="m44 41h-13v-2a1 1 0 0 0 -1-1h-3a1 1 0 0 0 -1 1v2h-7a1 1 0 0 0 0 2h7v2a1 1 0 0 0 1 1h3a1 1 0 0 0 1-1v-2h13a1 1 0 0 0 0-2zm-15 3h-1v-4h1z" fill="url(#linear-gradient-2)"/><path d="m27.523 32.879a1 1 0 0 0 1.021-.04l9.243-6a1 1 0 0 0 0-1.678l-9.243-6a1 1 0 0 0 -1.544.839v12a1 1 0 0 0 .523.879zm1.477-11.038 6.406 4.159-6.406 4.159z" fill="url(#linear-gradient-3)"/><path d="m26 57h-7a1 1 0 0 0 0 2h7a1 1 0 0 0 0-2z" fill="url(#linear-gradient-4)"/><path d="m30 57h-1a1 1 0 0 0 0 2h1a1 1 0 0 0 0-2z" fill="url(#linear-gradient-5)"/><path d="m11 27a1 1 0 0 0 -1 1v8a1 1 0 0 0 2 0v-8a1 1 0 0 0 -1-1z" fill="url(#linear-gradient-6)"/><path d="m7 22a1 1 0 0 0 -1 1v19a1 1 0 0 0 2 0v-19a1 1 0 0 0 -1-1z" fill="url(#linear-gradient-7)"/><path d="m7 18a1 1 0 0 0 -1 1v.857a1 1 0 0 0 2 0v-.857a1 1 0 0 0 -1-1z" fill="url(#linear-gradient-8)"/><path d="m3 29a1 1 0 0 0 -1 1v8a1 1 0 0 0 2 0v-8a1 1 0 0 0 -1-1z" fill="url(#linear-gradient-9)"/><path d="m53 23a1 1 0 0 0 -1 1v8a1 1 0 0 0 2 0v-8a1 1 0 0 0 -1-1z" fill="url(#linear-gradient-10)"/><path d="m57 17a1 1 0 0 0 -1 1v21.571a1 1 0 0 0 2 0v-21.571a1 1 0 0 0 -1-1z" fill="url(#linear-gradient-11)"/><path d="m57 42.143a1 1 0 0 0 -1 1v.857a1 1 0 0 0 2 0v-.857a1 1 0 0 0 -1-1z" fill="url(#linear-gradient-12)"/><path d="m61 21a1 1 0 0 0 -1 1v8a1 1 0 0 0 2 0v-8a1 1 0 0 0 -1-1z" fill="url(#linear-gradient-13)"/></g></svg>